<svg width="710" height="130" viewBox="0 0 710 130" fill="none" xmlns="http://www.w3.org/2000/svg">
<path fill-rule="evenodd" clip-rule="evenodd" d="M12.2928 30.8339C30.885 30.2619 48.7269 23.3796 62.8814 11.3357C76.5978 22.988 94.1983 30.2149 113.462 30.8178C115.169 36.9862 116.083 43.4893 116.083 50.2123C116.083 83.5795 93.5597 111.692 62.8787 120.158C32.1968 111.686 9.6736 83.569 9.6736 50.202C9.66831 43.652 10.5508 37.137 12.2928 30.8339ZM85.0368 46.2765C87.2105 47.8291 87.7139 50.8499 86.1613 53.0237L61.9773 86.8812C61.1509 88.0381 59.8574 88.7729 58.4404 88.8902C57.0235 89.0074 55.6267 88.4953 54.6214 87.49L40.111 72.9796C38.2221 71.0907 38.2221 68.0282 40.111 66.1394C41.9999 64.2505 45.0624 64.2505 46.9512 66.1394L57.4243 76.6124L78.2896 47.401C79.8422 45.2273 82.863 44.7238 85.0368 46.2765Z" fill="#E11D48"/>
<path fill-rule="evenodd" clip-rule="evenodd" d="M66.2049 1.32564C64.3378 -0.443365 61.4127 -0.441674 59.5476 1.32949C45.861 14.3268 27.6337 21.4555 8.76085 21.1921C6.64608 21.1625 4.75739 22.5104 4.09779 24.5199C1.37664 32.81 -0.00660477 41.4806 2.37097e-05 50.2059C2.37097e-05 88.5294 26.2072 120.714 61.672 129.847C62.463 130.051 63.2927 130.051 64.0837 129.847C99.5494 120.721 125.757 88.5357 125.757 50.2123C125.757 41.2443 124.318 32.6023 121.658 24.5111C121.005 22.5265 119.152 21.1851 117.063 21.1851H116.083C96.7562 21.1851 79.2065 13.6439 66.2049 1.32564ZM12.2928 30.8339C30.885 30.2619 48.7269 23.3796 62.8814 11.3357C76.5978 22.988 94.1983 30.2149 113.462 30.8178C115.169 36.9862 116.083 43.4893 116.083 50.2123C116.083 83.5795 93.5597 111.692 62.8787 120.158C32.1968 111.686 9.6736 83.569 9.6736 50.202C9.66831 43.652 10.5508 37.137 12.2928 30.8339Z" fill="white"/>
<path d="M86.1613 53.0237C87.7139 50.8499 87.2105 47.8291 85.0368 46.2765C82.863 44.7238 79.8422 45.2273 78.2896 47.401L57.4243 76.6124L46.9512 66.1394C45.0624 64.2505 41.9999 64.2505 40.111 66.1394C38.2221 68.0282 38.2221 71.0907 40.111 72.9796L54.6214 87.49C55.6267 88.4953 57.0235 89.0074 58.4404 88.8902C59.8574 88.7729 61.1509 88.0381 61.9773 86.8812L86.1613 53.0237Z" fill="white"/>
<path d="M170.437 74.2H206.917V92.2H170.437V74.2ZM151.717 106L180.637 24.28H201.157L228.037 106H208.477L187.357 37.6H194.437L171.157 106H151.717ZM252.871 107.56C247.671 107.56 243.031 106.24 238.951 103.6C234.871 100.96 231.671 97.28 229.351 92.56C227.031 87.84 225.871 82.52 225.871 76.6C225.871 70.6 227.031 65.28 229.351 60.64C231.751 55.92 234.991 52.24 239.071 49.6C243.231 46.96 247.911 45.64 253.111 45.64C258.231 45.64 262.671 46.8 266.431 49.12C270.191 51.44 273.111 54.92 275.191 59.56C277.271 64.12 278.311 69.8 278.311 76.6C278.311 83 277.231 88.52 275.071 93.16C272.911 97.8 269.911 101.36 266.071 103.84C262.311 106.32 257.911 107.56 252.871 107.56ZM256.711 88.84C259.911 88.84 262.591 87.72 264.751 85.48C266.911 83.16 267.991 80.2 267.991 76.6C267.991 73.08 266.911 70.16 264.751 67.84C262.591 65.44 259.911 64.24 256.711 64.24C253.591 64.24 250.951 65.44 248.791 67.84C246.711 70.16 245.671 73.08 245.671 76.6C245.671 80.2 246.711 83.16 248.791 85.48C250.951 87.72 253.591 88.84 256.711 88.84ZM271.951 106L267.031 89.92H268.111V64.6H267.031V24.28H286.471V106H271.951ZM295.983 106V24.28H326.103C333.223 24.28 338.863 25.16 343.023 26.92C347.263 28.6 350.263 31.12 352.023 34.48C353.863 37.84 354.783 42 354.783 46.96C354.783 50.8 353.983 54.2 352.383 57.16C350.783 60.04 348.583 62.32 345.783 64C342.983 65.6 339.743 66.4 336.063 66.4L336.303 63.4C340.943 63.4 344.743 64.28 347.703 66.04C350.663 67.8 352.823 70.2 354.183 73.24C355.623 76.2 356.343 79.44 356.343 82.96C356.343 90.64 353.983 96.4 349.263 100.24C344.623 104.08 337.623 106 328.263 106H295.983ZM315.423 33.76V95.68L308.703 87.4H327.783C330.423 87.4 332.543 86.8 334.143 85.6C335.743 84.32 336.543 82.52 336.543 80.2C336.543 77.8 335.783 76 334.263 74.8C332.743 73.6 330.663 73 328.023 73H308.703V56.56H326.343C329.143 56.56 331.263 56 332.703 54.88C334.143 53.76 334.863 52.04 334.863 49.72C334.863 47.48 334.143 45.8 332.703 44.68C331.263 43.48 329.143 42.88 326.343 42.88H309.063L315.423 33.76ZM381.661 106.6C378.461 106.6 375.461 106 372.661 104.8C369.861 103.52 367.581 101.48 365.821 98.68C364.141 95.88 363.301 92.16 363.301 87.52V24.28H382.621V80.68C382.621 83.72 383.101 85.68 384.061 86.56C385.101 87.36 386.501 87.76 388.261 87.76V106.12C387.541 106.28 386.501 106.4 385.141 106.48C383.861 106.56 382.701 106.6 381.661 106.6ZM422.019 107.56C415.859 107.56 410.459 106.24 405.819 103.6C401.179 100.96 397.539 97.32 394.899 92.68C392.259 88.04 390.939 82.72 390.939 76.72C390.939 70.64 392.259 65.28 394.899 60.64C397.539 56 401.179 52.36 405.819 49.72C410.459 47 415.859 45.64 422.019 45.64C428.259 45.64 433.699 47 438.339 49.72C443.059 52.36 446.699 56 449.259 60.64C451.899 65.28 453.219 70.64 453.219 76.72C453.219 82.72 451.899 88.04 449.259 92.68C446.699 97.32 443.059 100.96 438.339 103.6C433.699 106.24 428.259 107.56 422.019 107.56ZM422.019 88.6C425.379 88.6 428.139 87.52 430.299 85.36C432.459 83.12 433.539 80.2 433.539 76.6C433.539 73 432.459 70.12 430.299 67.96C428.139 65.72 425.379 64.6 422.019 64.6C418.739 64.6 416.019 65.72 413.859 67.96C411.699 70.12 410.619 73 410.619 76.6C410.619 80.12 411.699 83 413.859 85.24C416.019 87.48 418.739 88.6 422.019 88.6ZM485.339 107.56C479.339 107.56 474.059 106.24 469.499 103.6C465.019 100.96 461.499 97.28 458.939 92.56C456.379 87.84 455.099 82.48 455.099 76.48C455.099 70.56 456.379 65.28 458.939 60.64C461.499 56 465.019 52.36 469.499 49.72C474.059 47 479.339 45.64 485.339 45.64C492.139 45.64 497.979 47.28 502.859 50.56C507.739 53.84 511.219 58.24 513.299 63.76L495.899 71.68C494.859 69.44 493.539 67.72 491.939 66.52C490.339 65.24 488.219 64.6 485.579 64.6C482.459 64.6 479.819 65.68 477.659 67.84C475.579 70 474.539 72.88 474.539 76.48C474.539 80.24 475.579 83.2 477.659 85.36C479.819 87.44 482.459 88.48 485.579 88.48C488.219 88.48 490.339 87.88 491.939 86.68C493.539 85.48 494.859 83.8 495.899 81.64L513.299 89.32C511.219 94.84 507.699 99.28 502.739 102.64C497.859 105.92 492.059 107.56 485.339 107.56ZM530.668 76.48V74.08L554.308 47.2H575.788L549.868 76.96L549.628 72.04L576.508 106H553.948L530.668 76.48ZM517.468 24.28H536.788V106H517.468V24.28ZM598.381 106H578.821V47.2H598.381V106ZM577.381 28.6C577.381 25.16 578.421 22.44 580.501 20.44C582.581 18.36 585.301 17.32 588.661 17.32C592.101 17.32 594.821 18.36 596.821 20.44C598.821 22.44 599.821 25.16 599.821 28.6C599.821 31.88 598.821 34.56 596.821 36.64C594.821 38.64 592.101 39.64 588.661 39.64C585.301 39.64 582.581 38.64 580.501 36.64C578.421 34.56 577.381 31.88 577.381 28.6ZM611.55 106V44.2C611.55 39.72 612.39 35.88 614.07 32.68C615.83 29.4 618.27 26.88 621.39 25.12C624.59 23.28 628.31 22.36 632.55 22.36C634.79 22.36 636.75 22.52 638.43 22.84C640.19 23.08 641.55 23.28 642.51 23.44V41.08C641.87 40.92 641.11 40.76 640.23 40.6C639.43 40.36 638.39 40.24 637.11 40.24C635.03 40.24 633.51 40.84 632.55 42.04C631.59 43.16 631.11 44.96 631.11 47.44V106H611.55ZM641.19 67.6H603.99V49.72H641.19V67.6ZM665.394 102.64L641.754 47.2H661.314L684.234 101.08L665.394 102.64ZM653.874 128.8L688.554 47.2H708.114L673.434 128.8H653.874Z" fill="black"/>
</svg>
