<svg width="95" height="21" viewBox="0 0 95 21" fill="none" xmlns="http://www.w3.org/2000/svg">
<path fill-rule="evenodd" clip-rule="evenodd" d="M1.90614 4.78115C4.78907 4.69246 7.55566 3.62528 9.75049 1.75773C11.8774 3.56455 14.6065 4.68516 17.5937 4.77865C17.8583 5.73514 18 6.74351 18 7.786C18 12.96 14.5075 17.3192 9.75007 18.6318C4.99249 17.3183 1.5 12.9583 1.5 7.78439C1.49918 6.76875 1.63602 5.75852 1.90614 4.78115ZM13.1859 7.1757C13.523 7.41646 13.6011 7.88487 13.3603 8.22193L9.6103 13.4719C9.48216 13.6513 9.28158 13.7653 9.06186 13.7834C8.84215 13.8016 8.62556 13.7222 8.46967 13.5663L6.21967 11.3163C5.92678 11.0234 5.92678 10.5486 6.21967 10.2557C6.51257 9.96278 6.98744 9.96278 7.28033 10.2557L8.9043 11.8796L12.1397 7.35007C12.3805 7.01301 12.8489 6.93494 13.1859 7.1757Z" fill="#E11D48"/>
<path fill-rule="evenodd" clip-rule="evenodd" d="M10.2658 0.205555C9.97631 -0.0687488 9.52275 -0.0684867 9.23355 0.206152C7.11128 2.22154 4.28492 3.32692 1.35847 3.28607C1.03055 3.2815 0.737688 3.4905 0.63541 3.8021C0.213465 5.08757 -0.00102415 6.43205 3.67646e-06 7.785C3.67646e-06 13.7275 4.06373 18.7181 9.56296 20.1343C9.68561 20.1659 9.81426 20.1659 9.93692 20.1343C15.4363 18.7191 19.5 13.7285 19.5 7.786C19.5 6.3954 19.277 5.05537 18.8645 3.80073C18.7633 3.49299 18.476 3.285 18.152 3.285H18C15.0032 3.285 12.2819 2.11565 10.2658 0.205555ZM1.90614 4.78115C4.78907 4.69246 7.55566 3.62528 9.75049 1.75773C11.8774 3.56455 14.6065 4.68516 17.5937 4.77865C17.8583 5.73514 18 6.74351 18 7.786C18 12.96 14.5075 17.3192 9.75007 18.6318C4.99249 17.3183 1.5 12.9583 1.5 7.78439C1.49918 6.76875 1.63602 5.75852 1.90614 4.78115Z" fill="white"/>
<path d="M13.3603 8.22193C13.6011 7.88487 13.523 7.41646 13.1859 7.1757C12.8489 6.93494 12.3805 7.01301 12.1397 7.35007L8.9043 11.8796L7.28033 10.2557C6.98744 9.96278 6.51257 9.96278 6.21967 10.2557C5.92678 10.5486 5.92678 11.0234 6.21967 11.3163L8.46967 13.5663C8.62556 13.7222 8.84215 13.8016 9.06186 13.7834C9.28158 13.7653 9.48216 13.6513 9.6103 13.4719L13.3603 8.22193Z" fill="white"/>
<path d="M25.46 12.025H30.02V14.275H25.46V12.025ZM23.12 16L26.735 5.785H29.3L32.66 16H30.215L27.575 7.45H28.46L25.55 16H23.12ZM35.8996 16.195C35.2496 16.195 34.6696 16.03 34.1596 15.7C33.6496 15.37 33.2496 14.91 32.9596 14.32C32.6696 13.73 32.5246 13.065 32.5246 12.325C32.5246 11.575 32.6696 10.91 32.9596 10.33C33.2596 9.74 33.6646 9.28 34.1746 8.95C34.6946 8.62 35.2796 8.455 35.9296 8.455C36.5696 8.455 37.1246 8.6 37.5946 8.89C38.0646 9.18 38.4296 9.615 38.6896 10.195C38.9496 10.765 39.0796 11.475 39.0796 12.325C39.0796 13.125 38.9446 13.815 38.6746 14.395C38.4046 14.975 38.0296 15.42 37.5496 15.73C37.0796 16.04 36.5296 16.195 35.8996 16.195ZM36.3796 13.855C36.7796 13.855 37.1146 13.715 37.3846 13.435C37.6546 13.145 37.7896 12.775 37.7896 12.325C37.7896 11.885 37.6546 11.52 37.3846 11.23C37.1146 10.93 36.7796 10.78 36.3796 10.78C35.9896 10.78 35.6596 10.93 35.3896 11.23C35.1296 11.52 34.9996 11.885 34.9996 12.325C34.9996 12.775 35.1296 13.145 35.3896 13.435C35.6596 13.715 35.9896 13.855 36.3796 13.855ZM38.2846 16L37.6696 13.99H37.8046V10.825H37.6696V5.785H40.0996V16H38.2846ZM41.4386 16V5.785H45.2036C46.0936 5.785 46.7986 5.895 47.3186 6.115C47.8486 6.325 48.2236 6.64 48.4436 7.06C48.6736 7.48 48.7886 8 48.7886 8.62C48.7886 9.1 48.6886 9.525 48.4886 9.895C48.2886 10.255 48.0136 10.54 47.6636 10.75C47.3136 10.95 46.9086 11.05 46.4486 11.05L46.4786 10.675C47.0586 10.675 47.5336 10.785 47.9036 11.005C48.2736 11.225 48.5436 11.525 48.7136 11.905C48.8936 12.275 48.9836 12.68 48.9836 13.12C48.9836 14.08 48.6886 14.8 48.0986 15.28C47.5186 15.76 46.6436 16 45.4736 16H41.4386ZM43.8686 6.97V14.71L43.0286 13.675H45.4136C45.7436 13.675 46.0086 13.6 46.2086 13.45C46.4086 13.29 46.5086 13.065 46.5086 12.775C46.5086 12.475 46.4136 12.25 46.2236 12.1C46.0336 11.95 45.7736 11.875 45.4436 11.875H43.0286V9.82H45.2336C45.5836 9.82 45.8486 9.75 46.0286 9.61C46.2086 9.47 46.2986 9.255 46.2986 8.965C46.2986 8.685 46.2086 8.475 46.0286 8.335C45.8486 8.185 45.5836 8.11 45.2336 8.11H43.0736L43.8686 6.97ZM52.2984 16.075C51.8984 16.075 51.5234 16 51.1734 15.85C50.8234 15.69 50.5384 15.435 50.3184 15.085C50.1084 14.735 50.0034 14.27 50.0034 13.69V5.785H52.4184V12.835C52.4184 13.215 52.4784 13.46 52.5984 13.57C52.7284 13.67 52.9034 13.72 53.1234 13.72V16.015C53.0334 16.035 52.9034 16.05 52.7334 16.06C52.5734 16.07 52.4284 16.075 52.2984 16.075ZM57.4932 16.195C56.7232 16.195 56.0482 16.03 55.4682 15.7C54.8882 15.37 54.4332 14.915 54.1032 14.335C53.7732 13.755 53.6082 13.09 53.6082 12.34C53.6082 11.58 53.7732 10.91 54.1032 10.33C54.4332 9.75 54.8882 9.295 55.4682 8.965C56.0482 8.625 56.7232 8.455 57.4932 8.455C58.2732 8.455 58.9532 8.625 59.5332 8.965C60.1232 9.295 60.5782 9.75 60.8982 10.33C61.2282 10.91 61.3932 11.58 61.3932 12.34C61.3932 13.09 61.2282 13.755 60.8982 14.335C60.5782 14.915 60.1232 15.37 59.5332 15.7C58.9532 16.03 58.2732 16.195 57.4932 16.195ZM57.4932 13.825C57.9132 13.825 58.2582 13.69 58.5282 13.42C58.7982 13.14 58.9332 12.775 58.9332 12.325C58.9332 11.875 58.7982 11.515 58.5282 11.245C58.2582 10.965 57.9132 10.825 57.4932 10.825C57.0832 10.825 56.7432 10.965 56.4732 11.245C56.2032 11.515 56.0682 11.875 56.0682 12.325C56.0682 12.765 56.2032 13.125 56.4732 13.405C56.7432 13.685 57.0832 13.825 57.4932 13.825ZM65.5435 16.195C64.7935 16.195 64.1335 16.03 63.5635 15.7C63.0035 15.37 62.5635 14.91 62.2435 14.32C61.9235 13.73 61.7635 13.06 61.7635 12.31C61.7635 11.57 61.9235 10.91 62.2435 10.33C62.5635 9.75 63.0035 9.295 63.5635 8.965C64.1335 8.625 64.7935 8.455 65.5435 8.455C66.3935 8.455 67.1235 8.66 67.7335 9.07C68.3435 9.48 68.7785 10.03 69.0385 10.72L66.8635 11.71C66.7335 11.43 66.5685 11.215 66.3685 11.065C66.1685 10.905 65.9035 10.825 65.5735 10.825C65.1835 10.825 64.8535 10.96 64.5835 11.23C64.3235 11.5 64.1935 11.86 64.1935 12.31C64.1935 12.78 64.3235 13.15 64.5835 13.42C64.8535 13.68 65.1835 13.81 65.5735 13.81C65.9035 13.81 66.1685 13.735 66.3685 13.585C66.5685 13.435 66.7335 13.225 66.8635 12.955L69.0385 13.915C68.7785 14.605 68.3385 15.16 67.7185 15.58C67.1085 15.99 66.3835 16.195 65.5435 16.195ZM71.3596 12.31V12.01L74.3146 8.65H76.9996L73.7596 12.37L73.7296 11.755L77.0896 16H74.2696L71.3596 12.31ZM69.7096 5.785H72.1246V16H69.7096V5.785ZM79.9738 16H77.5288V8.65H79.9738V16ZM77.3488 6.325C77.3488 5.895 77.4788 5.555 77.7388 5.305C77.9988 5.045 78.3388 4.915 78.7588 4.915C79.1888 4.915 79.5288 5.045 79.7788 5.305C80.0288 5.555 80.1538 5.895 80.1538 6.325C80.1538 6.735 80.0288 7.07 79.7788 7.33C79.5288 7.58 79.1888 7.705 78.7588 7.705C78.3388 7.705 77.9988 7.58 77.7388 7.33C77.4788 7.07 77.3488 6.735 77.3488 6.325ZM81.7699 16V8.275C81.7699 7.715 81.8749 7.235 82.0849 6.835C82.3049 6.425 82.6099 6.11 82.9999 5.89C83.3999 5.66 83.8649 5.545 84.3949 5.545C84.6749 5.545 84.9199 5.565 85.1299 5.605C85.3499 5.635 85.5199 5.66 85.6399 5.68V7.885C85.5599 7.865 85.4649 7.845 85.3549 7.825C85.2549 7.795 85.1249 7.78 84.9649 7.78C84.7049 7.78 84.5149 7.855 84.3949 8.005C84.2749 8.145 84.2149 8.37 84.2149 8.68V16H81.7699ZM85.4749 11.2H80.8249V8.965H85.4749V11.2ZM88.6504 15.58L85.6954 8.65H88.1404L91.0054 15.385L88.6504 15.58ZM87.2104 18.85L91.5454 8.65H93.9904L89.6554 18.85H87.2104Z" fill="black"/>
</svg>
