<svg width="128" height="128" viewBox="0 0 128 128" fill="none" xmlns="http://www.w3.org/2000/svg">
<path fill-rule="evenodd" clip-rule="evenodd" d="M14.1037 30.3595C32.4098 29.7964 49.9772 23.0199 63.914 11.1613C77.4194 22.6343 94.7491 29.75 113.717 30.3436C115.398 36.4172 116.297 42.8202 116.297 49.4398C116.297 82.2937 94.1204 109.974 63.9114 118.309C33.7015 109.968 11.5248 82.2833 11.5248 49.4296C11.5196 42.9805 12.3885 36.5657 14.1037 30.3595ZM85.7285 45.5645C87.8688 47.0933 88.3645 50.0676 86.8357 52.2079L63.0239 85.5445C62.2102 86.6837 60.9365 87.4072 59.5414 87.5226C58.1462 87.6381 56.7709 87.1339 55.781 86.144L41.4939 71.8568C39.6341 69.997 39.6341 66.9817 41.4939 65.1218C43.3537 63.262 46.3691 63.262 48.2289 65.1218L58.5409 75.4338L79.0851 46.6718C80.6139 44.5315 83.5882 44.0358 85.7285 45.5645Z" fill="#E11D48"/>
<path fill-rule="evenodd" clip-rule="evenodd" d="M67.1864 1.30524C65.348 -0.436543 62.4679 -0.434878 60.6315 1.30903C47.1555 14.1064 29.2085 21.1254 10.6261 20.866C8.54384 20.837 6.6842 22.1641 6.03475 24.1427C3.35547 32.3052 1.9935 40.8425 2.00002 49.4335C2.00002 87.1674 27.804 118.857 62.7232 127.85C63.502 128.05 64.319 128.05 65.0978 127.85C100.018 118.863 125.822 87.1736 125.822 49.4398C125.822 40.6098 124.406 32.1008 121.786 24.134C121.144 22.1799 119.319 20.8592 117.262 20.8592H116.297C97.2677 20.8592 79.988 13.434 67.1864 1.30524ZM14.1037 30.3595C32.4098 29.7964 49.9772 23.0199 63.914 11.1613C77.4194 22.6343 94.7491 29.75 113.717 30.3436C115.398 36.4172 116.297 42.8202 116.297 49.4398C116.297 82.2937 94.1204 109.974 63.9114 118.309C33.7015 109.968 11.5248 82.2833 11.5248 49.4296C11.5196 42.9805 12.3885 36.5657 14.1037 30.3595Z" fill="white"/>
<path d="M86.8357 52.2079C88.3645 50.0676 87.8688 47.0933 85.7285 45.5645C83.5882 44.0358 80.6139 44.5315 79.0851 46.6718L58.5409 75.4338L48.2289 65.1218C46.3691 63.262 43.3537 63.262 41.4939 65.1218C39.6341 66.9817 39.6341 69.997 41.4939 71.8568L55.781 86.144C56.7709 87.1339 58.1462 87.6381 59.5414 87.5226C60.9365 87.4072 62.2102 86.6837 63.0239 85.5445L86.8357 52.2079Z" fill="white"/>
</svg>
