<svg width="126" height="130" viewBox="0 0 126 130" fill="none" xmlns="http://www.w3.org/2000/svg">
<path fill-rule="evenodd" clip-rule="evenodd" d="M12.2928 30.8339C30.885 30.2619 48.7269 23.3796 62.8814 11.3357C76.5978 22.988 94.1983 30.2149 113.462 30.8178C115.169 36.9862 116.083 43.4893 116.083 50.2123C116.083 83.5795 93.5597 111.692 62.8787 120.158C32.1968 111.686 9.6736 83.569 9.6736 50.202C9.66831 43.652 10.5508 37.137 12.2928 30.8339ZM85.0368 46.2765C87.2105 47.8291 87.7139 50.8499 86.1613 53.0237L61.9773 86.8812C61.1509 88.0381 59.8574 88.7729 58.4404 88.8902C57.0235 89.0074 55.6267 88.4953 54.6214 87.49L40.111 72.9796C38.2221 71.0907 38.2221 68.0282 40.111 66.1394C41.9999 64.2505 45.0624 64.2505 46.9512 66.1394L57.4243 76.6124L78.2896 47.401C79.8422 45.2273 82.863 44.7238 85.0368 46.2765Z" fill="#E11D48"/>
<path fill-rule="evenodd" clip-rule="evenodd" d="M66.2049 1.32564C64.3378 -0.443365 61.4127 -0.441674 59.5476 1.32949C45.861 14.3268 27.6337 21.4555 8.76085 21.1921C6.64608 21.1625 4.75739 22.5104 4.09779 24.5199C1.37664 32.81 -0.00660477 41.4806 2.37097e-05 50.2059C2.37097e-05 88.5294 26.2072 120.714 61.672 129.847C62.463 130.051 63.2927 130.051 64.0837 129.847C99.5494 120.721 125.757 88.5357 125.757 50.2123C125.757 41.2443 124.318 32.6023 121.658 24.5111C121.005 22.5265 119.152 21.1851 117.063 21.1851H116.083C96.7562 21.1851 79.2065 13.6439 66.2049 1.32564ZM12.2928 30.8339C30.885 30.2619 48.7269 23.3796 62.8814 11.3357C76.5978 22.988 94.1983 30.2149 113.462 30.8178C115.169 36.9862 116.083 43.4893 116.083 50.2123C116.083 83.5795 93.5597 111.692 62.8787 120.158C32.1968 111.686 9.6736 83.569 9.6736 50.202C9.66831 43.652 10.5508 37.137 12.2928 30.8339Z" fill="white"/>
<path d="M86.1613 53.0237C87.7139 50.8499 87.2105 47.8291 85.0368 46.2765C82.863 44.7238 79.8422 45.2273 78.2896 47.401L57.4243 76.6124L46.9512 66.1394C45.0624 64.2505 41.9999 64.2505 40.111 66.1394C38.2221 68.0282 38.2221 71.0907 40.111 72.9796L54.6214 87.49C55.6267 88.4953 57.0235 89.0074 58.4404 88.8902C59.8574 88.7729 61.1509 88.0381 61.9773 86.8812L86.1613 53.0237Z" fill="white"/>
</svg>
